<svg id="lnr-thumbs-up" viewBox="0 0 1024 1024" width="4em" height="4em">
    <title>thumbs-up</title>
    <path className="path1" d="M968.517 573.851c22.662-26.155 35.565-69.381 35.565-110.541 0-27.17-5.899-50.974-17.056-68.842-14.526-23.259-37.762-36.069-65.426-36.069h-134.053c72.966-132.683 91.408-232.587 54.766-297.302-25.534-45.096-72.366-61.098-104.714-61.098-12.811 0-23.65 9.469-25.368 22.165-9.147 67.554-60.811 148.131-141.742 221.074-77.518 69.869-172.765 125.768-270.642 159.208-12.317-26.010-38.811-44.046-69.448-44.046h-153.6c-42.347 0-76.8 34.453-76.8 76.8v460.8c0 42.347 34.453 76.8 76.8 76.8h153.6c32.437 0 60.222-20.226 71.459-48.718 100.421 12.57 138.195 32.754 174.794 52.314 45.802 24.482 89.062 47.605 230.547 47.605 36.854 0 71.587-9.624 97.8-27.101 25.61-17.074 41.968-41.006 47.4-68.755 20.414-8.283 38.544-27.426 52.454-55.893 13.53-27.688 22.272-63.077 22.272-90.166 0-5.069-0.296-9.726-0.89-14.014 12.944-9.528 24.56-24.243 34.152-43.592 13.837-27.912 22.099-62.866 22.099-93.494 0-21.694-4.027-39.802-11.968-53.822-0.645-1.128-1.312-2.234-2.003-3.31zM230.4 921.6h-153.6c-14.115 0-25.6-11.485-25.6-25.6v-460.8c0-14.115 11.485-25.6 25.6-25.6h153.6c14.115 0 25.6 11.485 25.6 25.6v460.738c0 0.022 0 0.043 0 0.066-0.002 14.114-11.486 25.597-25.6 25.597zM938.944 526.014c-7.739 15.546-15.57 21.186-18.944 21.186-14.139 0-25.6 11.461-25.6 25.6s11.461 25.6 25.6 25.6c2.149 0 3.699 0 5.971 4.008 3.378 5.965 5.315 16.382 5.315 28.582 0 22.77-6.427 49.883-16.771 70.754-10.131 20.437-20.451 27.856-24.915 27.856-14.139 0-25.6 11.461-25.6 25.6 0 9.067 4.715 17.034 11.827 21.582 1.581 16.206-5.976 59.629-25.627 87.947-7.438 10.722-15.238 16.87-21.4 16.87-14.139 0-25.6 11.461-25.6 25.6 0 45.072-49.765 65.6-96 65.6-128.659 0-164.691-19.259-206.413-41.56-38.992-20.84-82.864-44.29-193.587-58.085v-419.179c107.558-35.258 212.589-96.114 297.566-172.704 81.554-73.502 135.12-152.979 153.286-226.603 13.933 4.477 29.651 13.896 39.706 31.656 17.096 30.192 29.896 107.299-76.43 284.506-4.746 7.909-4.87 17.758-0.325 25.784s13.053 12.987 22.277 12.987h178.32c10.17 0 16.749 3.586 21.998 11.99 5.986 9.586 9.283 24.402 9.283 41.72 0 21.733-5.211 45.174-13.938 62.702z" />
</svg>