<svg id="lnr-hourglass" viewBox="0 0 1024 1024" width="6em" height="6em">
    <title>hourglass</title>
    <path className="path1" d="M819.2 179.2v-25.6c0-20.061-12.354-37.533-36.715-51.933-17.598-10.402-42.042-19.557-72.651-27.21-59.995-14.997-139.344-23.258-223.434-23.258-84.088 0-163.438 8.261-223.432 23.259-30.61 7.653-55.053 16.806-72.653 27.21-24.362 14.398-36.715 31.87-36.715 51.931v25.6c0 134.691 81.574 255.944 204.795 307.288v102.222c-123.221 51.346-204.795 172.598-204.795 307.29v25.6c0 20.059 12.354 37.533 36.715 51.933 17.6 10.402 42.043 19.557 72.653 27.21 59.994 14.998 139.344 23.258 223.432 23.258 84.090 0 163.438-8.259 223.434-23.258 30.61-7.653 55.053-16.808 72.651-27.21 24.362-14.4 36.715-31.874 36.715-51.933v-25.6c0-134.691-81.573-255.944-204.794-307.29v-102.222c123.221-51.344 204.794-172.597 204.794-307.288zM287.322 121.309c54.56-12.194 125.261-18.909 199.078-18.909 73.819 0 144.52 6.715 199.080 18.909 58.867 13.157 76.701 27.336 81.366 32.291-4.666 4.955-22.499 19.134-81.366 32.291-54.56 12.194-125.261 18.909-199.080 18.909-73.818 0-144.518-6.715-199.078-18.909-58.869-13.157-76.702-27.336-81.37-32.291 4.667-4.955 22.501-19.134 81.37-32.291zM580.275 630.418c112.285 39.69 187.725 146.419 187.725 265.582v24.238c-2.141 2.909-16.598 18.92-82.52 33.653-54.56 12.194-125.261 18.909-199.080 18.909-73.818 0-144.52-6.715-199.078-18.907-65.915-14.731-80.378-30.741-82.522-33.653v-24.24c0-119.163 75.442-225.893 187.726-265.582 10.229-3.616 17.067-13.286 17.067-24.136v-137.363c0-10.85-6.838-20.522-17.069-24.136-101.195-35.768-172.453-125.992-185.544-230.693 15.342 6.923 34.075 13.174 55.986 18.653 59.995 14.997 139.346 23.258 223.434 23.258 84.090 0 163.438-8.261 223.434-23.259 21.91-5.477 40.642-11.73 55.986-18.653-13.093 104.699-84.35 194.923-185.544 230.693-10.23 3.616-17.069 13.288-17.069 24.136v137.363c0 10.851 6.838 20.522 17.069 24.138z" />
    <path className="path2" d="M699.734 846.264c-115.798-40.933-187.734-139.586-187.734-257.464v-154.872c30.741-3.022 60.315-11.496 88.202-25.355 12.661-6.293 17.824-21.658 11.531-34.318s-21.658-17.826-34.318-11.531c-28.408 14.118-59.030 21.277-91.014 21.277s-62.605-7.158-91.013-21.278c-12.659-6.29-28.026-1.13-34.318 11.531s-1.13 28.026 11.531 34.318c27.885 13.859 57.461 22.333 88.2 25.355v154.874c0 117.878-71.936 216.531-187.734 257.464-10.762 3.803-17.706 14.272-17.022 25.666 0.682 11.394 8.826 20.96 19.963 23.453 50.294 11.254 126.824 26.218 210.394 26.218s160.099-14.963 210.394-26.218c11.139-2.494 19.282-12.059 19.965-23.453 0.68-11.394-6.261-21.862-17.024-25.666zM486.4 870.4c-44.885 0-87.093-4.464-124.762-10.478 34.070-21.573 63.706-48.766 87.586-80.626 15.019-20.035 27.45-41.557 37.174-64.211 9.726 22.654 22.155 44.174 37.174 64.211 23.88 31.858 53.515 59.051 87.586 80.626-37.666 6.014-79.874 10.478-124.758 10.478z" />
</svg>