<svg id="lnr-smiley" viewBox="0 0 1024 1024" width="3em" height="3em">
    <title>smile</title>
    <path className="path1" d="M486.4 1024c-129.922 0-252.067-50.594-343.936-142.464s-142.464-214.014-142.464-343.936c0-129.923 50.595-252.067 142.464-343.936s214.013-142.464 343.936-142.464c129.922 0 252.067 50.595 343.936 142.464s142.464 214.014 142.464 343.936-50.594 252.067-142.464 343.936c-91.869 91.87-214.014 142.464-343.936 142.464zM486.4 102.4c-239.97 0-435.2 195.23-435.2 435.2s195.23 435.2 435.2 435.2 435.2-195.23 435.2-435.2-195.23-435.2-435.2-435.2z" />
    <path className="path2" d="M332.8 409.6c-42.347 0-76.8-34.453-76.8-76.8s34.453-76.8 76.8-76.8 76.8 34.453 76.8 76.8-34.453 76.8-76.8 76.8zM332.8 307.2c-14.115 0-25.6 11.485-25.6 25.6s11.485 25.6 25.6 25.6 25.6-11.485 25.6-25.6-11.485-25.6-25.6-25.6z" />
    <path className="path3" d="M640 409.6c-42.349 0-76.8-34.453-76.8-76.8s34.451-76.8 76.8-76.8 76.8 34.453 76.8 76.8-34.451 76.8-76.8 76.8zM640 307.2c-14.115 0-25.6 11.485-25.6 25.6s11.485 25.6 25.6 25.6 25.6-11.485 25.6-25.6-11.485-25.6-25.6-25.6z" />
    <path className="path4" d="M486.4 870.4c-183.506 0-332.8-149.294-332.8-332.8 0-14.139 11.462-25.6 25.6-25.6s25.6 11.461 25.6 25.6c0 155.275 126.325 281.6 281.6 281.6s281.6-126.325 281.6-281.6c0-14.139 11.461-25.6 25.6-25.6s25.6 11.461 25.6 25.6c0 183.506-149.294 332.8-332.8 332.8z" />
</svg>