<svg id="lnr-mustache" viewBox="0 0 1024 1024" width="3em" height="3em">
    <title>smile</title>
    <path className="path1" d="M486.4 1024c-129.922 0-252.067-50.594-343.936-142.464s-142.464-214.014-142.464-343.936c0-129.923 50.595-252.067 142.464-343.936s214.013-142.464 343.936-142.464c129.922 0 252.067 50.595 343.936 142.464s142.464 214.014 142.464 343.936-50.594 252.067-142.464 343.936c-91.869 91.87-214.014 142.464-343.936 142.464zM486.4 102.4c-239.97 0-435.2 195.23-435.2 435.2s195.23 435.2 435.2 435.2 435.2-195.23 435.2-435.2-195.23-435.2-435.2-435.2z"></path>
    <path className="path2" d="M332.8 409.6c-42.347 0-76.8-34.453-76.8-76.8s34.453-76.8 76.8-76.8 76.8 34.453 76.8 76.8-34.453 76.8-76.8 76.8zM332.8 307.2c-14.115 0-25.6 11.485-25.6 25.6s11.485 25.6 25.6 25.6 25.6-11.485 25.6-25.6-11.485-25.6-25.6-25.6z"></path>
    <path className="path3" d="M640 409.6c-42.349 0-76.8-34.453-76.8-76.8s34.451-76.8 76.8-76.8 76.8 34.453 76.8 76.8-34.451 76.8-76.8 76.8zM640 307.2c-14.115 0-25.6 11.485-25.6 25.6s11.485 25.6 25.6 25.6 25.6-11.485 25.6-25.6-11.485-25.6-25.6-25.6z"></path>
    <path className="path4" d="M815.258 626.352c-5.658-8.979-16.27-13.53-26.678-11.454-9.582 1.917-18.819 2.888-27.454 2.888-0.002 0-0.006 0-0.010 0-44.645-0.003-71.763-25.77-100.47-53.053-27.28-25.925-55.49-52.733-97.445-52.733-30.563 0-58.021 13.475-76.8 34.776-18.779-21.301-46.237-34.776-76.8-34.776-41.954 0-70.163 26.808-97.443 52.733-28.709 27.283-55.826 53.051-100.47 53.051-8.643 0-17.883-0.97-27.466-2.888-10.402-2.083-21.019 2.475-26.678 11.454s-5.19 20.517 1.178 29.008c59.243 78.992 135.293 95.573 188.658 95.573 31.79 0 57.109-5.984 69.373-9.552 27.166-7.902 52.106-27.757 69.648-52.627 17.542 24.87 42.482 44.723 69.648 52.627 12.266 3.566 37.587 9.554 69.374 9.552 53.366-0.002 129.416-16.584 188.656-95.573 6.371-8.49 6.84-20.029 1.181-29.006zM402.45 692.219c-9.646 2.806-29.63 7.514-55.070 7.514-29.939 0-69.050-6.722-105.958-33.501 47.877-9.141 79.642-39.328 106.006-64.384 25.213-23.962 41.706-38.648 62.173-38.648 28.232 0 51.2 22.968 51.2 51.2 0 31.275-28.358 69.094-58.35 77.819zM625.422 699.733c-25.437 0.002-45.424-4.706-55.070-7.514-29.994-8.725-58.352-46.544-58.352-77.819 0-28.232 22.968-51.2 51.2-51.2 20.469 0 36.962 14.686 62.176 38.646 26.365 25.053 58.13 55.238 106.005 64.382-36.907 26.781-76.019 33.504-105.958 33.504z"></path>
</svg>