<svg version="1.1" id="Layer_1" xmlns="http://www.w3.org/2000/svg" xmlns:xlink="http://www.w3.org/1999/xlink" viewBox="0 0 200 200" style="enable-background:new 0 0 595.3 841.9;" xml:space="preserve">
<g>
	<path d="M213.2,405.1c-15.4,0-27.8,12.5-27.8,27.8c0,15.4,12.5,27.8,27.8,27.8c15.4,0,27.8-12.5,27.8-27.8
		C241.1,417.5,228.6,405.1,213.2,405.1z M228.8,448h-11.1v-3.9l2.3-0.4l-1.4-4.5h-10.6l-1.4,4.5l2.3,0.4v3.9h-11.1v-3.9l2.3-0.3
		l10-28.4h6.7l9.9,28.4l2.3,0.3V448z"/>
	<polygon points="213.2,422.8 209.5,434.3 217,434.3 213.3,422.8 	"/>
</g>
</svg>
