<svg xmlns="http://www.w3.org/2000/svg" xmlns:xlink="http://www.w3.org/1999/xlink" version="1.1" id="Layer_1" x="0px" y="0px" viewBox="0 0 200 200" style="enable-background:new 0 0 200 200; margin-left: -10px;" xml:space="preserve">
    <title>Man</title>
	<path d="M161.3,40c0,10.6-8.6,19.1-19.1,19.1c-10.6,0-19.1-8.6-19.1-19.1s8.6-19.1,19.1-19.1C152.7,20.9,161.3,29.4,161.3,40   L161.3,40z"/>
	<path d="M172.6,62h-60.8c-6.5,0-11.8,4.3-11.8,9.7l16.1,59.8c0,3.7,2.6,7,6.3,8.6v30.2c0,5.9,4,10.7,8.9,10.7   c4.9,0,8.9-4.8,8.9-10.7v-29.1h4v29.1c0,5.9,4,10.7,8.9,10.7c4.9,0,8.9-4.8,8.9-10.7v-30.2c3.8-1.6,6.3-4.9,6.3-8.6l16.1-59.8   C184.3,66.3,179.1,62,172.6,62z"/>
</svg>